<svg width="151" height="143" viewBox="0 0 151 143" fill="none" xmlns="http://www.w3.org/2000/svg">
    <rect width="151" height="143" fill="white"/>
    <path d="M0 0H151V143H0V0Z" fill="white"/>
    <path fill-rule="evenodd" clip-rule="evenodd" d="M141 10H10V133H141V10ZM0 0V143H151V0H0Z" fill="black"/>
    <path d="M57.01 85H22.45C21.31 85 20.47 84.76 19.93 84.28C19.45 83.74 19.21 82.9 19.21 81.76V23.44C19.21 22.3 19.45 21.49 19.93 21.01C20.47 20.47 21.31 20.2 22.45 20.2H51.16C57.04 20.2 61.39 21.34 64.21 23.62C67.03 25.84 68.44 29.29 68.44 33.97V38.29C68.44 40.81 67.99 42.88 67.09 44.5C66.25 46.06 64.93 47.23 63.13 48.01C66.97 48.37 69.82 49.69 71.68 51.97C73.54 54.25 74.47 57.58 74.47 61.96V70.24C74.47 75.28 73.03 79 70.15 81.4C67.33 83.8 62.95 85 57.01 85ZM29.2 76.9H53.41C55.93 76.9 57.97 76.69 59.53 76.27C61.09 75.79 62.26 75.16 63.04 74.38C63.88 73.6 64.45 72.67 64.75 71.59C65.05 70.45 65.2 69.22 65.2 67.9V62.14C65.2 60.64 65.05 59.26 64.75 58C64.51 56.74 63.97 55.66 63.13 54.76C62.29 53.8 61.09 53.08 59.53 52.6C57.97 52.06 55.96 51.79 53.5 51.79C56.08 51.13 57.67 50.05 58.27 48.55C58.93 47.05 59.26 45.4 59.26 43.6V37.84C59.26 36.52 59.11 35.29 58.81 34.15C58.51 33.01 57.94 32.02 57.1 31.18C56.26 30.28 55.06 29.59 53.5 29.11C51.94 28.57 49.93 28.3 47.47 28.3H29.2V76.9ZM47.47 29.2C51.97 29.2 54.91 30.04 56.29 31.72C57.67 33.4 58.36 35.44 58.36 37.84V43.6C58.36 44.68 58.24 45.73 58 46.75C57.82 47.71 57.34 48.58 56.56 49.36C55.84 50.08 54.76 50.68 53.32 51.16C51.88 51.58 49.93 51.79 47.47 51.79H30.1V29.2H47.47ZM39.46 35.5V45.22H47.11C48.25 45.22 49.09 44.92 49.63 44.32C50.23 43.72 50.53 42.82 50.53 41.62V39.1C50.53 37.9 50.23 37 49.63 36.4C49.09 35.8 48.25 35.5 47.11 35.5H39.46ZM53.5 52.69C58 52.69 60.91 53.59 62.23 55.39C63.61 57.19 64.3 59.44 64.3 62.14V67.9C64.3 70.36 63.61 72.34 62.23 73.84C60.85 75.28 57.91 76 53.41 76H30.1V52.69H53.5ZM39.46 59.08V69.7H51.16C52.3 69.7 53.14 69.4 53.68 68.8C54.28 68.2 54.58 67.3 54.58 66.1V62.59C54.58 61.39 54.28 60.52 53.68 59.98C53.14 59.38 52.3 59.08 51.16 59.08H39.46Z" fill="black"/>
    <path d="M114.485 85H86.0448C84.9048 85 84.0648 84.76 83.5248 84.28C83.0448 83.74 82.8048 82.9 82.8048 81.76V71.23C82.8048 70.09 83.0448 69.28 83.5248 68.8C84.0648 68.26 84.9048 67.99 86.0448 67.99H110.255C111.035 67.99 111.605 67.75 111.965 67.27C112.385 66.73 112.595 66.1 112.595 65.38C112.595 64.36 112.385 63.61 111.965 63.13C111.605 62.65 111.035 62.38 110.255 62.32L96.7548 60.43C92.5548 59.83 89.1648 58.45 86.5848 56.29C84.0648 54.13 82.8048 50.53 82.8048 45.49V36.04C82.8048 30.94 84.4548 27.04 87.7548 24.34C91.0548 21.58 95.6148 20.2 101.435 20.2H126.635C127.775 20.2 128.585 20.47 129.065 21.01C129.605 21.49 129.875 22.3 129.875 23.44V34.15C129.875 35.29 129.605 36.13 129.065 36.67C128.585 37.15 127.775 37.39 126.635 37.39H105.665C104.885 37.39 104.285 37.66 103.865 38.2C103.445 38.68 103.235 39.31 103.235 40.09C103.235 40.87 103.445 41.53 103.865 42.07C104.285 42.61 104.885 42.91 105.665 42.97L119.075 44.77C123.275 45.37 126.665 46.75 129.245 48.91C131.825 51.07 133.115 54.67 133.115 59.71V69.16C133.115 74.26 131.435 78.19 128.075 80.95C124.775 83.65 120.245 85 114.485 85ZM121.775 28.3H101.795C99.0348 28.3 96.8148 29.08 95.1348 30.64C93.4548 32.14 92.6148 34.09 92.6148 36.49V43.87C92.6148 46.33 93.0948 48.04 94.0548 49C95.0748 49.9 96.3648 50.5 97.9248 50.8L116.915 54.67C118.595 55.03 119.915 55.75 120.875 56.83C121.895 57.85 122.405 59.77 122.405 62.59V67.81C122.405 70.21 121.565 72.19 119.885 73.75C118.265 75.25 116.075 76 113.315 76H90.9048V76.9H113.315C116.375 76.9 118.805 76.06 120.605 74.38C122.405 72.64 123.305 70.45 123.305 67.81V62.59C123.305 59.47 122.705 57.31 121.505 56.11C120.365 54.91 118.895 54.13 117.095 53.77L98.1048 49.9C96.7248 49.66 95.6148 49.12 94.7748 48.28C93.9348 47.44 93.5148 45.97 93.5148 43.87V36.49C93.5148 34.39 94.2648 32.65 95.7648 31.27C97.2648 29.89 99.2748 29.2 101.795 29.2H121.775V28.3Z" fill="black"/>
    <path d="M24.659 113.879C26.1923 113.879 27.465 114.469 28.477 115.65C29.5043 116.815 30.018 118.241 30.018 119.928V123.976C30.018 124.329 30.0027 124.597 29.972 124.781C29.9567 124.95 29.8953 125.141 29.788 125.356C29.5733 125.77 28.9753 125.977 27.994 125.977C26.9053 125.977 26.2767 125.693 26.108 125.126C26.016 124.865 25.97 124.474 25.97 123.953V119.905C25.97 119.276 25.786 118.786 25.418 118.433C25.0653 118.08 24.5823 117.904 23.969 117.904C23.371 117.904 22.8803 118.088 22.497 118.456C22.129 118.824 21.945 119.307 21.945 119.905V123.976C21.945 124.329 21.9297 124.597 21.899 124.781C21.8837 124.95 21.8147 125.141 21.692 125.356C21.4927 125.77 20.9023 125.977 19.921 125.977C18.955 125.977 18.3647 125.77 18.15 125.356C18.0427 125.126 17.9737 124.927 17.943 124.758C17.9277 124.574 17.92 124.306 17.92 123.953V115.811C17.92 115.474 17.9277 115.221 17.943 115.052C17.9737 114.868 18.0503 114.669 18.173 114.454C18.3877 114.071 18.978 113.879 19.944 113.879C20.8793 113.879 21.4543 114.055 21.669 114.408C21.8223 114.669 21.899 114.983 21.899 115.351C21.9603 115.244 22.0983 115.09 22.313 114.891C22.5277 114.692 22.7347 114.531 22.934 114.408C23.4553 114.055 24.0303 113.879 24.659 113.879Z" fill="black"/>
    <path d="M31.5233 119.951C31.5233 118.111 32.1673 116.593 33.4553 115.397C34.7433 114.201 36.2153 113.603 37.8713 113.603C39.5273 113.603 40.9916 114.201 42.2643 115.397C43.5369 116.578 44.1733 118.088 44.1733 119.928C44.1733 121.201 43.8436 122.335 43.1843 123.332C42.5249 124.313 41.7199 125.042 40.7693 125.517C39.8339 125.977 38.8603 126.207 37.8483 126.207C36.8363 126.207 35.8549 125.962 34.9043 125.471C33.9536 124.965 33.1486 124.229 32.4893 123.263C31.8453 122.282 31.5233 121.178 31.5233 119.951ZM36.3303 121.607C36.8209 121.975 37.3193 122.159 37.8253 122.159C38.3313 122.159 38.8373 121.967 39.3433 121.584C39.8493 121.201 40.1023 120.633 40.1023 119.882C40.1023 119.131 39.8646 118.571 39.3893 118.203C38.9139 117.835 38.4003 117.651 37.8483 117.651C37.2963 117.651 36.7826 117.843 36.3073 118.226C35.8319 118.609 35.5943 119.177 35.5943 119.928C35.5943 120.664 35.8396 121.224 36.3303 121.607Z" fill="black"/>
    <path d="M58.1237 113.902C59.4883 113.902 60.738 114.508 61.8727 115.719C63.0227 116.93 63.5977 118.341 63.5977 119.951C63.5977 121.546 63.0303 122.949 61.8957 124.16C60.761 125.356 59.542 125.954 58.2387 125.954C56.9353 125.954 56.0077 125.586 55.4557 124.85C55.333 125.601 54.6737 125.977 53.4777 125.977C52.5117 125.977 51.9213 125.77 51.7067 125.356C51.5993 125.126 51.5303 124.927 51.4997 124.758C51.4843 124.574 51.4767 124.306 51.4767 123.953V110.222C51.4767 109.869 51.4843 109.609 51.4997 109.44C51.5303 109.256 51.5993 109.057 51.7067 108.842C51.9213 108.428 52.5193 108.221 53.5007 108.221C54.4667 108.221 55.0493 108.428 55.2487 108.842C55.3713 109.072 55.4403 109.279 55.4557 109.463C55.4863 109.632 55.5017 109.892 55.5017 110.245V115.029C56.115 114.278 56.989 113.902 58.1237 113.902ZM56.0997 121.331C56.483 121.745 56.9583 121.952 57.5257 121.952C58.093 121.952 58.576 121.745 58.9747 121.331C59.3733 120.917 59.5727 120.457 59.5727 119.951C59.5727 119.445 59.3887 118.985 59.0207 118.571C58.6527 118.142 58.162 117.927 57.5487 117.927C56.9353 117.927 56.4447 118.142 56.0767 118.571C55.724 119 55.5477 119.468 55.5477 119.974C55.5477 120.465 55.7317 120.917 56.0997 121.331Z" fill="black"/>
    <path d="M70.47 125.954C68.9213 125.954 67.6333 125.371 66.606 124.206C65.594 123.025 65.088 121.592 65.088 119.905V115.88C65.088 115.512 65.0957 115.244 65.111 115.075C65.1417 114.906 65.2107 114.707 65.318 114.477C65.5327 114.063 66.1307 113.856 67.112 113.856C68.1853 113.856 68.814 114.147 68.998 114.73C69.09 114.975 69.136 115.366 69.136 115.903V119.928C69.136 120.557 69.3123 121.047 69.665 121.4C70.033 121.753 70.516 121.929 71.114 121.929C71.7273 121.929 72.218 121.745 72.586 121.377C72.9693 121.009 73.161 120.526 73.161 119.928V115.857C73.161 115.504 73.1686 115.244 73.184 115.075C73.2146 114.891 73.2913 114.684 73.414 114.454C73.6133 114.055 74.2036 113.856 75.185 113.856C76.151 113.856 76.7413 114.063 76.956 114.477C77.0633 114.707 77.1247 114.914 77.14 115.098C77.1707 115.267 77.186 115.527 77.186 115.88V124.022C77.186 124.359 77.1707 124.62 77.14 124.804C77.1247 124.973 77.0557 125.164 76.933 125.379C76.703 125.778 76.1126 125.977 75.162 125.977C74.2266 125.977 73.6516 125.793 73.437 125.425C73.2836 125.164 73.207 124.85 73.207 124.482C73.1457 124.589 73.0077 124.743 72.793 124.942C72.5783 125.141 72.3713 125.31 72.172 125.448C71.6506 125.785 71.0833 125.954 70.47 125.954Z" fill="black"/>
    <path d="M83.2682 121.929C83.7742 121.929 84.1499 122.059 84.3952 122.32C84.6406 122.581 84.7632 123.117 84.7632 123.93C84.7632 124.743 84.6329 125.287 84.3722 125.563C84.1116 125.824 83.7359 125.954 83.2452 125.954C81.6966 125.954 80.6079 125.586 79.9792 124.85C79.3506 124.099 79.0362 122.857 79.0362 121.124V110.153C79.0362 109.8 79.0439 109.54 79.0592 109.371C79.0899 109.187 79.1589 108.98 79.2662 108.75C79.4809 108.351 80.0789 108.152 81.0602 108.152C81.9956 108.152 82.5782 108.367 82.8082 108.796C82.9309 109.011 82.9999 109.21 83.0152 109.394C83.0459 109.563 83.0612 109.823 83.0612 110.176V121.216C83.0612 121.691 83.1302 121.929 83.2682 121.929ZM89.2712 121.216C89.2712 121.507 89.3326 121.699 89.4552 121.791C89.5779 121.883 89.8922 121.929 90.3982 121.929C90.9042 121.929 91.3259 122.059 91.6632 122.32C92.0006 122.581 92.1692 123.117 92.1692 123.93C92.1692 124.743 91.9852 125.287 91.6172 125.563C91.2646 125.824 90.7662 125.954 90.1222 125.954C86.8716 125.954 85.2462 124.344 85.2462 121.124L85.2232 110.153C85.2232 109.8 85.2309 109.54 85.2462 109.371C85.2769 109.187 85.3536 108.98 85.4762 108.75C85.7062 108.351 86.3042 108.152 87.2702 108.152C88.2056 108.152 88.7882 108.367 89.0182 108.796C89.1869 109.133 89.2712 109.593 89.2712 110.176V121.216Z" fill="black"/>
    <path d="M93.5257 124.919C93.2344 124.735 93.0887 124.444 93.0887 124.045C93.0887 123.646 93.38 123.041 93.9627 122.228C94.1314 121.967 94.3997 121.837 94.7677 121.837C95.151 121.837 95.6647 122.029 96.3087 122.412C96.9527 122.78 97.5354 122.964 98.0567 122.964C98.992 122.964 99.4597 122.78 99.4597 122.412C99.4597 122.121 98.946 121.906 97.9187 121.768C96.9527 121.63 95.9944 121.27 95.0437 120.687C94.599 120.411 94.231 119.982 93.9397 119.399C93.6484 118.801 93.5027 118.096 93.5027 117.283C93.5027 114.86 95.1664 113.649 98.4937 113.649C99.5824 113.649 100.702 113.91 101.852 114.431C102.388 114.676 102.657 114.983 102.657 115.351C102.657 115.719 102.488 116.171 102.151 116.708C101.813 117.245 101.468 117.513 101.116 117.513C100.932 117.513 100.587 117.398 100.081 117.168C99.59 116.938 99.0534 116.823 98.4707 116.823C97.566 116.823 97.1137 116.992 97.1137 117.329C97.1137 117.789 97.635 118.088 98.6777 118.226C99.6897 118.333 100.671 118.625 101.622 119.1C102.066 119.315 102.434 119.69 102.726 120.227C103.032 120.748 103.186 121.408 103.186 122.205C103.186 123.002 103.032 123.685 102.726 124.252C102.434 124.804 102.02 125.218 101.484 125.494C100.502 125.969 99.268 126.207 97.7807 126.207C96.3087 126.207 94.8904 125.778 93.5257 124.919Z" fill="black"/>
    <path d="M111.403 113.925C112.936 113.925 114.209 114.508 115.221 115.673C116.248 116.838 116.762 118.264 116.762 119.951V123.999C116.762 124.352 116.746 124.62 116.716 124.804C116.7 124.973 116.631 125.172 116.509 125.402C116.309 125.801 115.719 126 114.738 126C113.802 126 113.22 125.801 112.99 125.402C112.867 125.172 112.79 124.965 112.76 124.781C112.744 124.597 112.737 124.321 112.737 123.953V119.928C112.737 119.299 112.56 118.809 112.208 118.456C111.855 118.103 111.403 117.927 110.851 117.927C110.314 117.927 109.839 118.096 109.425 118.433C109.011 118.755 108.773 119.123 108.712 119.537V123.999C108.712 124.352 108.696 124.62 108.666 124.804C108.65 124.973 108.581 125.172 108.459 125.402C108.259 125.801 107.669 126 106.688 126C105.722 126 105.131 125.793 104.917 125.379C104.809 125.149 104.74 124.95 104.71 124.781C104.694 124.612 104.687 124.344 104.687 123.976V110.222C104.687 109.869 104.694 109.609 104.71 109.44C104.74 109.256 104.809 109.057 104.917 108.842C105.131 108.428 105.729 108.221 106.711 108.221C107.677 108.221 108.259 108.428 108.459 108.842C108.581 109.072 108.65 109.279 108.666 109.463C108.696 109.632 108.712 109.892 108.712 110.245V115.328C109.478 114.393 110.375 113.925 111.403 113.925Z" fill="black"/>
    <path d="M118.612 115.903C118.612 115.55 118.62 115.29 118.635 115.121C118.666 114.937 118.735 114.73 118.842 114.5C119.057 114.101 119.655 113.902 120.636 113.902C121.372 113.902 121.894 114.032 122.2 114.293C122.461 114.508 122.599 114.837 122.614 115.282C122.63 115.435 122.637 115.658 122.637 115.949V123.999C122.637 124.352 122.622 124.62 122.591 124.804C122.576 124.973 122.507 125.172 122.384 125.402C122.185 125.801 121.595 126 120.613 126C119.647 126 119.057 125.793 118.842 125.379C118.735 125.149 118.666 124.95 118.635 124.781C118.62 124.612 118.612 124.344 118.612 123.976V115.903ZM122.384 111.648C122.277 111.863 122.078 112.016 121.786 112.108C121.495 112.2 121.104 112.246 120.613 112.246C120.138 112.246 119.755 112.2 119.463 112.108C119.172 112.016 118.965 111.855 118.842 111.625C118.735 111.395 118.666 111.196 118.635 111.027C118.62 110.843 118.612 110.575 118.612 110.222C118.612 109.869 118.62 109.609 118.635 109.44C118.666 109.256 118.735 109.057 118.842 108.842C119.057 108.428 119.655 108.221 120.636 108.221C121.602 108.221 122.185 108.428 122.384 108.842C122.507 109.072 122.576 109.279 122.591 109.463C122.622 109.632 122.637 109.892 122.637 110.245C122.637 110.598 122.622 110.866 122.591 111.05C122.576 111.219 122.507 111.418 122.384 111.648Z" fill="black"/>
    <path d="M131.513 117.95L130.018 117.858V121.032C130.018 121.446 130.079 121.745 130.202 121.929C130.34 122.113 130.585 122.205 130.938 122.205C131.306 122.205 131.582 122.22 131.766 122.251C131.965 122.266 132.172 122.335 132.387 122.458C132.739 122.657 132.916 123.171 132.916 123.999C132.916 124.965 132.701 125.555 132.272 125.77C132.042 125.877 131.835 125.946 131.651 125.977C131.482 125.992 131.229 126 130.892 126C129.297 126 128.086 125.64 127.258 124.919C126.43 124.198 126.016 122.979 126.016 121.262V117.858C125.724 117.904 125.41 117.927 125.073 117.927C124.735 117.927 124.452 117.797 124.222 117.536C124.007 117.275 123.9 116.831 123.9 116.202C123.9 115.573 123.938 115.121 124.015 114.845C124.091 114.554 124.199 114.347 124.337 114.224C124.582 114.025 124.889 113.925 125.257 113.925L126.016 114.017V111.648C126.016 111.295 126.023 111.035 126.039 110.866C126.069 110.697 126.146 110.513 126.269 110.314C126.468 109.931 127.058 109.739 128.04 109.739C129.082 109.739 129.703 110.023 129.903 110.59C129.979 110.835 130.018 111.226 130.018 111.763V114.017C130.692 113.956 131.198 113.925 131.536 113.925C131.888 113.925 132.149 113.94 132.318 113.971C132.502 113.986 132.709 114.055 132.939 114.178C133.337 114.377 133.537 114.968 133.537 115.949C133.537 116.915 133.33 117.505 132.916 117.72C132.686 117.827 132.479 117.896 132.295 117.927C132.126 117.942 131.865 117.95 131.513 117.95Z" fill="black"/>
    <path fill-rule="evenodd" clip-rule="evenodd" d="M144 102.5H7V93.5H144V102.5Z" fill="black"/>
</svg>
